<svg version="1.2" xmlns="http://www.w3.org/2000/svg" viewBox="0 0 805 794" width="805" height="794">
	<title>seal</title>
	<style>
		.s0 { fill: #000000 } 
	</style>
	<g>
		<path class="s0" d="m379.5 6.6c-56.5 4.6-104 17.4-153 41.4-39.5 19.4-72.2 42.7-103.5 74-66.3 66.3-105.8 148.2-117.7 244-2.1 17.1-2.4 66.3-0.5 82.5 2.2 18.7 5.2 36.4 8.7 51 8.4 35.2 28.2 85.3 33.3 84.3 5.4-1 11.7-25.8 33.7-131.3 15.9-76 30.4-122.2 52.1-165.5 29.1-58.1 69.2-99.3 121.9-125.1 26.5-13 53.4-20.9 85-25 21.3-2.8 58.1-2.3 77.5 1 28.1 4.8 51.2 12.2 75.5 24.1 18.2 8.9 29.6 16.1 44 27.7 13.2 10.6 21.3 19.2 40 42.8 36.4 45.8 47.5 53 110.2 72 23.1 7 36.2 12.6 40.3 17.1 2.2 2.4 2.2 2.6 0.5 1.9-3.7-1.4-19.9-1.8-25.7-0.6-3.1 0.7-6.9 2.2-8.4 3.3-2.4 2-2.6 2.6-2.1 7.4 1 9.5 10.7 27.5 21.1 39 5.3 6 5.5 7.2 3.1 20.7-3.3 19.1-12 38.9-23.9 54.8-8.9 11.7-25.6 27.4-38.3 35.9-21.1 14.2-40.9 22-81.4 32.4-47.4 12.1-64.7 20.2-77.4 36.3-12.6 16.1-18 34.8-17.9 62.3 0 23.9 3.8 44.3 16.9 92.5 6.2 22.7 13.7 52.3 18.5 73.5 2.7 11.5 4 13.3 8.9 12.4 7.9-1.4 27.7-7.6 39.8-12.4 106.5-42.5 195.6-142.7 228.3-256.7 15.5-54.2 19.3-107.6 11.9-166.3-9.9-79.1-42-152.5-92.3-211.5-16.8-19.7-43.9-45.4-62.8-59.8-55.4-42-119.7-68-192.8-77.7-15-2-59.9-3.5-73.5-2.4zm363.8 378.4c-1.7 23-9.4 40.6-23.1 53-6.9 6.2-8.8 7-5.4 2.3 8.3-11.9 16.2-38.3 16.2-54.8v-6l5.8-4.6 5.7-4.6 0.7 3.6c0.4 2 0.4 7 0.1 11.1z"/>
		<path class="s0" d="m460.2 274.1c-6.9 2.7-16.4 11.5-19.7 18.3-9.4 19.2-2.2 41.7 16.3 50.8 6.1 3 7.4 3.3 16.2 3.3 9.1 0 10-0.2 17.2-3.8 8.5-4.1 13.3-9 17.3-17.2 9.1-18.7 0.8-41.4-18.3-50.3-7.8-3.7-21.2-4.2-29-1.1z"/>
		<path class="s0" d="m572.5 381.6c-43.9 7.9-92.2 31.8-123.8 61.4-8.1 7.5-10.2 10.4-9.2 12 0.9 1.4 3.7-0.3 12.5-7.3 16.9-13.6 34-23 67.5-37.2 21.2-9 34.6-13.7 51.1-18 13.9-3.6 17.4-5.3 17.4-8.6 0-3.4-5-4.2-15.5-2.3z"/>
		<path class="s0" d="m637.5 382c-2.9 3.2-1 7.4 3.4 7.8 5.2 0.5 9.1-1.5 9.1-4.7 0-3.8-1.7-5.1-6.5-5.1-2.9 0-4.7 0.6-6 2z"/>
		<path class="s0" d="m592 407.9c-6.9 3.2-16.5 8.1-21.3 11-22.9 13.6-50.7 38.4-65.9 58.7-7.6 10.2-14.3 22.3-13.6 24.4 0.2 0.6 2.7-1.8 5.7-5.4 5.5-6.6 22.8-22.7 40.6-37.8 15.9-13.5 33.8-26.3 50.4-36.2 17.5-10.3 22.4-14.3 21.9-17.8-0.5-3.8-4.3-3.1-17.8 3.1z"/>
		<path class="s0" d="m637.5 413.5c-6.3 6.2 0.5 14 9.9 11.4 4.1-1.1 5.2-3.6 3.6-8.4-2-6-9-7.6-13.5-3z"/>
		<path class="s0" d="m617.9 430.2c-12.7 9.1-29.2 26.2-42.6 44.2-10.2 13.7-14.6 22.6-11 22.6 1.6 0 41.3-40.2 50.9-51.8 8.4-10 11.2-14.6 10.4-16.8-0.8-2.2-2.9-1.7-7.7 1.8z"/>
	</g>
</svg>